<?xml version="1.0" standalone="no"?><!DOCTYPE svg PUBLIC "-//W3C//DTD SVG 1.1//EN" "http://www.w3.org/Graphics/SVG/1.1/DTD/svg11.dtd"><svg t="1681489168459" class="icon" viewBox="0 0 1024 1024" version="1.1" xmlns="http://www.w3.org/2000/svg" p-id="1400" id="mx_n_1681489168461" xmlns:xlink="http://www.w3.org/1999/xlink" width="200" height="200"><path d="M903.8336 306.7904c-34.8672-235.7248-287.4368-227.2768-389.2736-227.2768s-354.4064-8.3968-389.2736 227.2768 169.216 398.08 194.6624 436.5824c0 0 17.2544 23.3472 36.1984 48.9472-16.7936-60.416-24.8832-133.7856-32.768-210.688-9.3696-91.5968-11.4688-165.2736-10.3424-222.1056 15.2576 30.8224 40.6528 49.3056 57.3952 41.4208 4.608-2.2016 8.0896-6.1952 10.3936-11.4688 0.1536 0.512 0.3584 1.024 0.5632 1.536 26.4704 79.36 64.9216 150.3232 138.2912 150.3232 73.3696 0 110.6432-68.5568 125.0816-143.104 0.2048-0.9728 0.4608-1.9968 0.6656-2.9696 1.9456 2.4064 4.1984 4.4032 6.9632 5.6832 17.1008 8.0896 43.264-11.264 58.368-43.264 1.792-3.7888 3.328-7.5776 4.6592-11.3152 7.936 74.8032-1.4848 160.768-5.632 222.6688-3.2256 48.0768-5.0176 128.8704-22.4768 203.3152 8.448-11.776 16.1792-22.1696 21.9136-28.928 29.8496-35.2256 229.5296-200.9088 194.6112-436.6336z" fill="#F7E9CF" p-id="1401"></path><path d="M715.4176 346.3168c-1.3312 3.7376-2.8672 7.5264-4.6592 11.3152-15.104 32-41.216 51.3536-58.368 43.264-2.7136-1.28-5.0176-3.2768-6.9632-5.6832-0.2048 0.9728-0.4608 1.9968-0.6656 2.9696-14.4384 74.5472-51.712 143.104-125.0816 143.104s-111.7696-70.912-138.24-150.3232c-0.1536-0.512-0.3584-1.024-0.5632-1.536-2.3552 5.2736-5.7856 9.2672-10.3936 11.4688-16.7936 7.936-42.1888-10.5472-57.3952-41.4208-1.1264 56.832 0.9728 130.5088 10.3424 222.1056 19.712 193.1264 40.8576 363.776 197.376 363.776 181.76 0 181.76-269.4144 188.9792-376.4224 4.1472-61.8496 13.5168-147.8144 5.632-222.6176z" fill="#FFFFFF" p-id="1402"></path><path d="M577.28 686.6432L541.8496 619.52v-83.4048c0-12.0832-9.8304-21.9136-21.9136-21.9136-12.0832 0-21.9136 9.8304-21.9136 21.9136v86.0672l-40.8064 62.7712a21.90336 21.90336 0 1 0 36.7104 23.9104l25.1392-38.6048 19.456 36.9152a21.93408 21.93408 0 0 0 29.5936 9.1648c10.7008-5.7344 14.7968-18.9952 9.1648-29.696z" fill="#FF5F57" p-id="1403"></path><path d="M514.56 79.5136c-88.576 0-291.0208-6.3488-365.312 146.944 28.0576-29.2864 64.6144-52.8384 102.2976-36.3008 20.9408 13.5168 50.9952 50.1248 77.9776 93.7472 15.36 3.2768 33.1264 20.2752 44.5952 44.4928 11.008 23.3472 13.1072 46.8992 6.8096 61.0816 0.1536 0.512 0.3584 1.024 0.512 1.536 26.4704 79.36 64.9216 150.3232 138.2912 150.3232s110.6432-68.5568 125.0816-143.104l0.6144-2.9696c-10.1888-12.8-9.3696-39.9872 3.328-66.8672 11.1616-23.6544 28.3648-40.3456 43.52-44.2368 22.5792-35.7376 50.3808-67.072 78.7968-86.784 40.7552-28.2624 90.624 16.1792 121.1392 59.7504-60.8768-184.7808-283.5456-177.6128-377.6512-177.6128z" fill="#F39800" p-id="1404"></path><path d="M312.169844 357.594801a64.0512 34.2528 64.702 1 0 61.935739-29.274245 64.0512 34.2528 64.702 1 0-61.935739 29.274245Z" fill="#FFFFFF" p-id="1405"></path><path d="M652.406872 400.928528a34.2528 64.0512 25.296 1 0 54.737482-115.818966 34.2528 64.0512 25.296 1 0-54.737482 115.818966Z" fill="#FFFFFF" p-id="1406"></path><path d="M919.04 304.5376c-5.8368-39.2704-17.3568-72.1408-33.0752-99.6352-0.3584-0.6656-0.7168-1.28-1.1264-1.9456-2.2528-3.84-4.5568-7.5776-6.9632-11.2128-1.0752-1.6384-2.1504-3.1744-3.2256-4.7616-1.1264-1.6384-2.2528-3.1744-3.4304-4.7616-78.08-107.1616-225.28-117.248-318.5664-118.016-1.4336 0-2.7648 0-4.1472-0.0512H483.84c-1.8944 0-3.7888 0-5.7344 0.0512-2.1504 0-4.3008 0.0512-6.5024 0.0512h-1.792c-68.1472 0.9216-163.6864 7.8848-239.9232 53.4528-0.4608 0.256-0.9216 0.5632-1.3824 0.8192-2.9696 1.792-5.888 3.6352-8.8064 5.5808-1.8944 1.28-3.84 2.56-5.7344 3.84-1.28 0.8704-2.5088 1.792-3.7888 2.6624-3.1232 2.2528-6.1952 4.608-9.216 7.0144-0.4096 0.3072-0.8192 0.6656-1.2288 1.024-44.2368 35.6352-78.08 88.2176-89.6 165.9392-30.0544 203.1616 111.8208 354.6624 172.3904 419.3792 11.3152 12.032 21.0432 22.4768 24.6272 27.904 0.1536 0.2048 0.3072 0.4096 0.4608 0.6656 0 0 15.9744 21.6576 34.1504 46.1824 26.624 94.1568 75.4688 162.1504 179.0464 162.1504 108.1344 0 156.9792-86.3232 180.224-181.1968 9.0112-12.544 15.4112-20.9408 19.968-26.2656 3.1744-3.7376 8.96-9.6256 16.3328-17.0496 58.368-59.2896 213.5552-216.4224 181.7088-431.8208zM489.216 94.8224h43.8784c78.6432-0.1024 215.3472 2.4064 295.424 84.6848-22.016-9.3184-44.8512-9.5232-66.0992 5.2224-28.0064 19.4048-56.32 50.0224-80.0768 86.5792-0.3584 0.1536-0.6656 0.3584-1.024 0.4608-1.536 0.6656-3.072 1.4336-4.6592 2.2528-0.512 0.256-1.024 0.512-1.4848 0.768-2.3552 1.3312-4.7104 2.816-7.0656 4.5568-3.9936 2.9696-7.7824 6.4512-11.4688 10.3424-0.256 0.3072-0.5632 0.6144-0.8192 0.8704-1.8432 1.9968-3.6352 4.0448-5.376 6.2464-0.0512 0.1024-0.1536 0.1536-0.2048 0.256-1.792 2.2528-3.5328 4.6592-5.1712 7.1168-0.3584 0.512-0.6656 1.024-0.9728 1.536-1.28 1.9968-2.56 3.9936-3.7376 6.0928-0.4096 0.6656-0.768 1.3312-1.1264 1.9968-1.4848 2.6112-2.8672 5.2736-4.1984 8.0384-1.4848 3.072-2.7648 6.2464-3.9424 9.3696-0.3584 0.8704-0.6656 1.7408-0.9728 2.6112a106.5984 106.5984 0 0 0-3.6864 12.1856c-0.4096 1.6384-0.768 3.2256-1.0752 4.8128-0.3072 1.4848-0.6144 2.9184-0.8192 4.352-0.3584 2.3552-0.6656 4.6592-0.8704 6.9632-0.1024 1.3824-0.2048 2.7136-0.256 4.0448-0.1024 1.6384-0.1024 3.2256-0.1024 4.8128 0 1.024 0 2.048 0.0512 3.072v0.256c0.1024 2.56 0.4096 5.0176 0.768 7.424 0.1024 0.768 0.3072 1.4848 0.4608 2.2528 0.3584 1.8944 0.8192 3.7376 1.3312 5.4784l0.768 2.304c0.6656 1.8432 1.3824 3.584 2.2016 5.2224 0.1536 0.3584 0.256 0.7168 0.4608 1.0752l-0.1536 0.8192c-0.1536 0.8192-0.3584 1.6384-0.512 2.4576-0.1536 0.768-0.3072 1.536-0.512 2.304-0.2048 0.8192-0.3584 1.6896-0.5632 2.56-0.1536 0.768-0.3584 1.5872-0.5632 2.3552l-0.6144 2.6112-0.6144 2.4576c-0.2048 0.8704-0.4608 1.7408-0.6656 2.6112-0.2048 0.8192-0.4608 1.6896-0.6656 2.5088l-0.768 2.7136c-0.256 0.8192-0.4608 1.6896-0.7168 2.5088-0.256 0.9216-0.5632 1.8432-0.8192 2.7648l-0.768 2.56c-0.3072 0.9216-0.5632 1.8432-0.8704 2.7648-0.3072 0.8704-0.5632 1.7408-0.8704 2.6112l-0.9216 2.7648c-0.3072 0.8704-0.6144 1.792-0.9728 2.6624-0.3072 0.9216-0.6656 1.792-0.9728 2.7136-0.3584 0.9216-0.7168 1.792-1.024 2.7136-0.3584 0.8704-0.7168 1.792-1.0752 2.6624-0.3584 0.9216-0.768 1.792-1.1264 2.7136-0.3584 0.8704-0.768 1.792-1.1264 2.6624-0.4096 0.9216-0.8192 1.8432-1.2288 2.7136-0.4096 0.8704-0.8192 1.7408-1.1776 2.6112-0.4096 0.9216-0.8704 1.792-1.3312 2.7136-0.4096 0.8704-0.8704 1.7408-1.28 2.6112-0.4608 0.8704-0.9216 1.792-1.3824 2.6624-0.4608 0.8704-0.9216 1.6896-1.3824 2.56-0.4608 0.8704-0.9728 1.7408-1.4848 2.6112-0.4608 0.8192-0.9728 1.6384-1.4336 2.4576-0.512 0.8704-1.0752 1.7408-1.5872 2.56-0.512 0.8192-1.024 1.5872-1.536 2.4064-0.5632 0.8192-1.1264 1.6896-1.6896 2.5088-0.512 0.768-1.0752 1.5872-1.6384 2.3552-0.5632 0.8192-1.1776 1.6384-1.792 2.4576-0.5632 0.768-1.1264 1.4848-1.6896 2.2528-0.6144 0.8192-1.28 1.5872-1.8944 2.3552-0.5632 0.7168-1.1776 1.4336-1.792 2.1504-0.6656 0.768-1.3312 1.536-2.048 2.2528-0.6144 0.6656-1.2288 1.3824-1.8432 1.9968l-2.1504 2.1504c-0.6656 0.6656-1.28 1.28-1.9456 1.8944-0.7168 0.7168-1.4848 1.3312-2.2528 1.9968-0.6656 0.6144-1.3312 1.2288-2.048 1.792-0.768 0.6656-1.5872 1.28-2.4064 1.8944-0.7168 0.5632-1.4336 1.1264-2.1504 1.6384-0.8192 0.6144-1.6896 1.1776-2.5088 1.7408-0.7168 0.512-1.4848 1.024-2.2016 1.4848-0.8704 0.5632-1.792 1.0752-2.6624 1.5872-0.5632 0.3072-1.0752 0.6656-1.6384 0.9728-11.1616 7.4752-30.72 10.0352-30.72 10.0352l-2.6624 0.3072c-0.768 0.0512-1.4848 0.1536-2.2016 0.256-2.2016 0.1536-4.4032 0.256-6.7072 0.256-1.6384 0-3.2768-0.0512-4.9152-0.1024l-1.7408-0.1536c-1.024-0.0512-2.0992-0.1536-3.1232-0.256h-0.1536c-11.4688-0.512-30.72-9.4208-30.72-9.4208-0.2048-0.1024-0.4608-0.256-0.6656-0.3584-0.8192-0.4608-1.6384-0.9216-2.4576-1.4336-0.5632-0.3584-1.1776-0.6656-1.792-1.024-0.8192-0.512-1.6384-1.0752-2.4576-1.5872-0.5632-0.3584-1.1264-0.7168-1.6384-1.1264-0.8192-0.5632-1.6384-1.1776-2.4576-1.792-0.512-0.4096-1.0752-0.768-1.5872-1.1776-0.8192-0.6656-1.6896-1.3312-2.5088-2.048-0.512-0.4096-0.9728-0.8192-1.4848-1.2288-0.8192-0.7168-1.6896-1.4848-2.5088-2.2528l-1.4336-1.28c-0.8192-0.768-1.6384-1.6384-2.5088-2.4576-0.4608-0.4608-0.9216-0.8704-1.3824-1.3824-0.8192-0.8704-1.6896-1.7408-2.5088-2.6624-0.4096-0.4608-0.8704-0.9216-1.28-1.3824-0.8192-0.9216-1.6896-1.8944-2.5088-2.9184-0.4096-0.4608-0.8192-0.9728-1.2288-1.4336-0.8192-1.024-1.6384-2.048-2.5088-3.1232-0.4096-0.512-0.8192-1.024-1.1776-1.536-0.8192-1.0752-1.6384-2.2016-2.4576-3.328-0.4096-0.512-0.768-1.024-1.1776-1.5872-0.8192-1.1264-1.6384-2.3552-2.4576-3.5328-0.3584-0.5632-0.768-1.1264-1.1264-1.6896a153.0112 153.0112 0 0 1-3.4816-5.4784c-0.8192-1.28-1.5872-2.6112-2.4064-3.9424-0.3584-0.6144-0.7168-1.1776-1.0752-1.792-0.768-1.3824-1.5872-2.7648-2.3552-4.1472-0.3584-0.6144-0.7168-1.28-1.0752-1.8944-0.768-1.4336-1.536-2.8672-2.304-4.352-0.3584-0.6656-0.7168-1.3312-1.024-1.9968-0.768-1.4848-1.536-3.0208-2.2528-4.5568-0.3584-0.7168-0.7168-1.3824-1.024-2.0992-0.768-1.536-1.4848-3.1232-2.2016-4.7104l-1.0752-2.304c-0.7168-1.5872-1.4336-3.1744-2.1504-4.8128-0.1536-0.3072-0.256-0.6144-0.4096-0.9216-0.2048-0.512-0.4608-1.024-0.6656-1.4848-0.7168-1.5872-1.3824-3.2256-2.0992-4.9152-0.3584-0.9216-0.768-1.792-1.1264-2.7136-0.6656-1.5872-1.3312-3.2256-1.9456-4.9152-0.4096-1.024-0.8192-1.9968-1.1776-3.0208-0.6144-1.5872-1.2288-3.2256-1.8432-4.864-0.4096-1.1264-0.8704-2.2528-1.28-3.4304-0.5632-1.536-1.1264-3.1232-1.6896-4.7104-0.4608-1.28-0.9216-2.6112-1.4336-3.9424l-1.536-4.4544c-0.3072-0.8704-0.6144-1.792-0.9216-2.6624 4.096-13.6704 3.4304-31.0784-2.1504-49.5104-0.0512-0.1024-0.0512-0.2048-0.1024-0.3072-0.8192-2.6624-1.7408-5.3248-2.7648-8.0384-0.1536-0.4096-0.3072-0.8192-0.4608-1.28-1.1264-2.8672-2.3552-5.7856-3.7376-8.704-0.0512-0.1024-0.1024-0.2048-0.1536-0.256-1.2288-2.6112-2.6112-5.1712-3.9936-7.68-0.512-0.8704-0.9728-1.7408-1.4848-2.6112-1.0752-1.792-2.1504-3.5328-3.2768-5.2736-0.512-0.8192-1.024-1.6384-1.536-2.4064-1.536-2.2016-3.072-4.352-4.7104-6.4-0.6144-0.768-1.2288-1.4848-1.8432-2.2528a95.65696 95.65696 0 0 0-5.632-6.2464c-1.6384-1.6896-3.328-3.2768-5.0176-4.8128-0.2048-0.1536-0.3584-0.3584-0.5632-0.512-1.6384-1.3824-3.2768-2.7136-4.9152-3.9424-0.3072-0.256-0.6656-0.4096-0.9728-0.6656-0.6656-0.4608-1.3824-0.9216-2.048-1.3824-1.4336-0.9728-2.9184-1.8944-4.352-2.7136-0.8192-0.4608-1.5872-0.8704-2.4064-1.28-1.3312-0.6656-2.6112-1.28-3.9424-1.792-0.512-0.2048-1.024-0.512-1.5872-0.7168-28.2624-44.8-57.8048-79.5648-79.616-93.6448a14.4384 14.4384 0 0 0-2.1504-1.1776c-12.6464-5.5808-29.0304-9.0112-48.3328-5.0176C288.1024 99.328 413.6448 94.9248 489.216 94.8224z m43.8784 563.1488c-2.56-4.8128-7.424-7.936-12.9024-8.192-5.5296-0.256-10.5984 2.4064-13.568 6.9632l-29.952 46.0288c-1.536 2.4064-3.9424 4.0448-6.7584 4.6592-2.7648 0.6144-5.6832 0.0512-8.0896-1.536-2.4064-1.536-4.0448-3.9424-4.6592-6.7584s-0.0512-5.6832 1.4848-8.0896l48.64-74.8032c1.6384-2.5088 2.5088-5.376 2.5088-8.3968v-46.4384h21.504v43.264c0 2.5088 0.6144 4.9664 1.792 7.168l42.1888 80.0256c1.3312 2.56 1.5872 5.4272 0.768 8.192-0.8704 2.7648-2.7136 4.9664-5.2224 6.2976-5.2224 2.7136-11.8272 0.6144-14.5408-4.5056l-23.1936-43.8784z m1.1264 65.6896h-34.8672c1.1264-1.3312 2.1504-2.6624 3.1232-4.1472l15.6672-24.1152 11.008 20.8384c1.3824 2.7136 3.1232 5.1712 5.0688 7.424z m-229.3248-20.736c-62.4128-66.6624-192.3072-205.3632-164.4544-393.8816 4.1472-28.16 11.6736-52.5824 21.7088-73.8304 30.208-30.8736 57.8048-41.472 82.0736-31.488 15.616 10.5984 38.2976 36.9664 60.4672 70.0416-21.3504 14.336-24.5248 51.2-7.0144 89.1392-1.1776 66.9184 2.304 140.9536 10.4448 220.2624 4.9152 48.2816 9.9328 97.024 17.664 142.6432-5.2736-6.1952-12.288-13.7216-20.8896-22.8864z m21.9136-350.3104l-0.768-1.536c-12.9024-27.2896-9.728-49.2544-3.6864-52.0704 0.512-0.256 1.1264-0.3584 1.9456-0.3584 0.5632 0 1.28 0.1024 1.9968 0.256h0.0512c1.1264 0.256 2.3552 0.6656 3.6352 1.2288 0.1024 0.0512 0.256 0.1024 0.3584 0.1536 1.1264 0.512 2.304 1.1776 3.4816 1.9456 0.3072 0.2048 0.5632 0.4096 0.8704 0.5632 1.2288 0.8192 2.4576 1.6896 3.6864 2.7136 0.1024 0.0512 0.1536 0.1536 0.256 0.2048 2.8672 2.4064 5.888 5.376 8.8064 8.9088 0.1536 0.1536 0.256 0.3072 0.4096 0.4608 1.3824 1.6896 2.7136 3.4304 4.0448 5.3248 0.1024 0.1024 0.1536 0.2048 0.256 0.3584 1.28 1.8944 2.56 3.8912 3.7888 5.9392 0.3072 0.512 0.5632 0.9728 0.8704 1.4848 1.1776 2.0992 2.3552 4.3008 3.4304 6.6048 0 0 0 0.0512 0.0512 0.0512 0.0512 0.1024 0.1024 0.2048 0.1024 0.256 1.0752 2.304 2.048 4.608 2.9184 6.8608 0.1536 0.4096 0.3072 0.768 0.4608 1.1776 6.5024 17.5616 6.4512 32.6144 3.1744 39.9872-0.256 0.5632-0.6656 1.3312-1.1264 2.0992l-0.0512 0.0512c-0.512 0.7168-1.0752 1.3312-1.7408 1.6384-0.3072 0.1536-0.6656 0.2048-1.024 0.3072-2.2016 0.3584-5.888-0.6144-10.496-3.4816-0.3072-0.2048-0.6144-0.4096-0.9728-0.6144-0.4096-0.256-0.768-0.512-1.1776-0.8192-0.512-0.3584-1.024-0.768-1.536-1.1776-0.4096-0.3072-0.8192-0.6656-1.2288-0.9728-0.6656-0.5632-1.3312-1.1264-1.9968-1.7408l-0.3072-0.3072c-3.4816-3.2256-7.0656-7.3216-10.5472-12.288 0-0.0512-0.0512-0.0512-0.0512-0.1024-0.8704-1.2288-1.7408-2.5088-2.56-3.8912-0.0512-0.0512-0.0512-0.1024-0.1024-0.1536-1.7408-2.7648-3.4304-5.7856-5.0176-9.0112-0.2048 0-0.2048 0-0.2048-0.0512z m1.4336 51.5072c1.0752 0.8704 2.0992 1.7408 3.1744 2.56 8.4992 6.2976 17.2544 9.984 25.7024 11.0592h0.2048c1.6384 0.2048 3.2256 0.3584 4.864 0.3584 0.2048 0 0.3584-0.0512 0.5632-0.0512 0.256 0 0.5632-0.0512 0.8192-0.0512 1.4336-0.0512 2.816-0.2048 4.2496-0.4096 0.4096-0.0512 0.8704-0.1024 1.28-0.2048 1.5872-0.3072 3.1744-0.7168 4.7104-1.28 0.0512 0 0.1536-0.0512 0.2048-0.0512 0.768 2.0992 1.5872 4.1984 2.3552 6.3488 0.2048 0.5632 0.4608 1.1776 0.6656 1.7408 0.6144 1.5872 1.2288 3.1744 1.8944 4.7616 0.3072 0.8192 0.6656 1.6384 1.024 2.5088 0.5632 1.3824 1.1264 2.7136 1.6896 4.096 0.3584 0.8704 0.768 1.792 1.1264 2.6624 0.5632 1.3312 1.1264 2.6112 1.6896 3.9424l1.2288 2.7648c0.5632 1.28 1.1264 2.56 1.7408 3.84 0.4096 0.9216 0.8704 1.8432 1.28 2.7648 0.6144 1.28 1.2288 2.56 1.792 3.84 0.4608 0.9216 0.8704 1.8432 1.3312 2.7648 0.6144 1.28 1.28 2.56 1.8944 3.84 0.4608 0.9216 0.9216 1.792 1.3824 2.7136 0.6656 1.3312 1.3824 2.6112 2.0992 3.8912 0.4608 0.8192 0.8704 1.6896 1.3312 2.5088 0.768 1.4336 1.5872 2.8672 2.4064 4.2496 0.4096 0.6656 0.768 1.3824 1.1776 2.048 2.4576 4.1984 4.9664 8.2944 7.6288 12.288l1.28 1.8944c0.9216 1.3312 1.8432 2.7136 2.7648 4.0448 0.512 0.768 1.0752 1.4848 1.6384 2.2016l2.6112 3.5328c0.6144 0.768 1.1776 1.536 1.792 2.304 0.8704 1.1264 1.7408 2.2016 2.6112 3.2768 0.6144 0.768 1.28 1.536 1.8944 2.304 0.8704 1.0752 1.792 2.0992 2.7136 3.1232 0.6656 0.768 1.3312 1.4848 1.9968 2.2528 0.9216 1.024 1.8432 1.9968 2.816 2.9696 0.6656 0.7168 1.3824 1.4336 2.048 2.0992 0.9728 0.9728 1.9968 1.9456 3.0208 2.9184 0.6656 0.6656 1.3824 1.28 2.048 1.9456 1.0752 0.9728 2.2016 1.9456 3.2768 2.9184 0.6656 0.5632 1.28 1.1264 1.9456 1.6896 0.6656 0.5632 1.3824 1.0752 2.048 1.6384H334.1824c-3.5328-44.288-5.5296-86.6304-5.9392-126.6176z m15.5136 223.1808c-1.7408-15.3088-3.4304-31.0272-5.0688-47.2064-0.6144-6.2464-1.2288-12.4416-1.792-18.5856h142.2336v41.8816l-15.5136 23.8592H344.576c-0.3072-0.0512-0.5632 0-0.8192 0.0512z m3.6352 30.6176h96.2048l-10.6496 16.384a41.34912 41.34912 0 0 0-5.8368 31.1808c1.4336 6.8096 4.5056 13.0048 8.8576 18.176H357.0176c-3.584-20.6336-6.7072-42.5984-9.6256-65.7408z m173.3632 272.128c-61.6448 0-100.3008-28.5184-126.2592-79.2064h248.6272c-24.9344 46.6432-63.0784 79.2064-122.368 79.2064z m151.552-161.28c-0.1024 0.3584-0.1024 0.6656-0.1536 1.024-4.096 17.408-9.0624 34.3552-15.1552 50.3296H381.2352c-7.168-19.6608-13.1584-41.6256-18.2784-65.7408h312.5248c-1.024 4.8128-2.048 9.6256-3.1744 14.3872z m8.704-45.1072h-83.5584c10.5472-12.544 13.1072-30.72 5.0176-46.08l-10.3424-19.6608h96.5632c-1.792 21.0944-4.1984 43.3664-7.68 65.7408z m13.4144-155.6992c-0.1536 2.048-0.256 4.1472-0.4096 6.3488-0.4096 6.5024-0.8192 13.568-1.2288 21.0432-0.2048 3.328-0.3584 6.8096-0.5632 10.2912l-0.4608 7.7312c0 0.4096-0.0512 0.768-0.0512 1.1776-0.256 4.1472-0.512 8.3456-0.768 12.6464h-115.0464l-13.8752-26.2656v-39.4752h132.864l-0.4608 6.5024z m6.5536-92.3136c-1.1264 19.2-2.5088 37.7344-3.7888 55.0912h-103.8848c0.6656-0.512 1.3312-1.024 1.9456-1.5872 0.8192-0.7168 1.6384-1.4336 2.5088-2.1504 0.7168-0.6656 1.4848-1.28 2.2016-1.9968 0.8192-0.768 1.6384-1.5872 2.4576-2.3552 0.7168-0.6656 1.4336-1.3824 2.1504-2.048 0.8192-0.8192 1.6384-1.7408 2.4576-2.6112 0.9728-1.024 1.8944-2.048 2.816-3.1232 1.1264-1.28 2.2016-2.5088 3.328-3.84 0.7168-0.8192 1.3824-1.7408 2.048-2.56 0.7168-0.8704 1.3824-1.7408 2.0992-2.6624 0.6656-0.9216 1.3312-1.8432 2.048-2.7648 0.6656-0.9216 1.3312-1.792 1.9456-2.7136 0.6656-0.9728 1.3312-1.9456 1.9968-2.9696 0.6144-0.9216 1.2288-1.8432 1.8432-2.816 0.6656-1.024 1.28-2.0992 1.9456-3.1232 0.5632-0.9728 1.1776-1.8944 1.7408-2.9184 0.6144-1.0752 1.2288-2.1504 1.8432-3.2768 0.5632-1.024 1.1264-1.9968 1.6896-3.0208 0.6144-1.1264 1.1776-2.2528 1.792-3.3792 0.5632-1.024 1.0752-2.0992 1.5872-3.1744l1.6896-3.5328c0.512-1.0752 1.024-2.2016 1.536-3.2768 0.5632-1.1776 1.0752-2.4064 1.6384-3.6352 0.512-1.1264 0.9728-2.304 1.4848-3.4816 0.512-1.2288 1.024-2.4576 1.536-3.7376 0.4608-1.1776 0.9216-2.4064 1.3824-3.6352 0.4608-1.28 0.9728-2.5088 1.4336-3.7888 0.4608-1.28 0.9216-2.56 1.3312-3.84 0.4608-1.28 0.8704-2.56 1.3312-3.84 0.4608-1.3312 0.8704-2.7136 1.28-4.0448 0.4096-1.28 0.8192-2.56 1.1776-3.84 0.4096-1.4336 0.8704-2.8672 1.28-4.352 0.3584-1.28 0.7168-2.5088 1.0752-3.84 0.4096-1.536 0.8192-3.1232 1.2288-4.7104l0.9216-3.6352c0.0512-0.256 0.1024-0.4608 0.2048-0.7168h0.256c0.9728 0.1024 1.9456 0.1536 2.9184 0.2048 0.3584 0 0.768 0.0512 1.1264 0.0512h0.1536c1.28 0 2.6112-0.0512 3.9424-0.2048l1.024-0.1536c1.024-0.1536 2.048-0.256 3.1232-0.512 0.512-0.1024 0.9728-0.256 1.4848-0.3584 0.9216-0.2048 1.792-0.4608 2.7136-0.7168 0.512-0.1536 1.0752-0.3584 1.6384-0.512 0.8704-0.3072 1.7408-0.6144 2.6112-0.9728 0.5632-0.2048 1.0752-0.4608 1.6384-0.6656 0.8704-0.4096 1.792-0.8192 2.6624-1.2288 0.512-0.256 1.0752-0.512 1.5872-0.8192 0.9728-0.512 1.8944-1.0752 2.8672-1.6384 0.4608-0.256 0.9216-0.512 1.3312-0.8192a72.1152 72.1152 0 0 0 11.1616-8.8064c1.1776-1.1264 2.4064-2.2528 3.584-3.4816 0.3072-0.3072 0.5632-0.5632 0.8704-0.8192 0.512 26.5216-0.4608 53.4528-1.9968 79.36z m-0.0512-134.5024s0 0.0512-0.0512 0.0512c-1.1776 3.3792-2.56 6.7072-4.0448 9.8816-5.376 11.4176-12.6464 21.4528-20.3776 28.2112-1.0752 0.9728-2.2016 1.8432-3.328 2.6624-6.7072 4.9664-11.9808 6.0928-14.2336 5.0688a4.44928 4.44928 0 0 1-1.4848-1.3824c-3.1744-3.9936-4.9664-14.4896-2.2528-28.416 0.1024-0.512 0.2048-1.024 0.3072-1.4848 0.1536-0.7168 0.3584-1.4848 0.512-2.2528 0.2048-0.9216 0.4608-1.8432 0.7168-2.7648l0.4608-1.536c0.3584-1.1776 0.7168-2.3552 1.1264-3.5328 0.1536-0.3584 0.256-0.768 0.3584-1.1264 0.4608-1.2288 0.9216-2.5088 1.4336-3.7376 0.1536-0.3584 0.256-0.7168 0.4096-1.0752 0.512-1.2288 1.024-2.4064 1.5872-3.584 0.1536-0.4096 0.3072-0.768 0.512-1.1776 1.0752-2.304 2.2528-4.5056 3.4304-6.6048 0.3584-0.6144 0.6656-1.2288 1.024-1.792 1.1264-1.9456 2.304-3.7888 3.4816-5.4784 0.3584-0.512 0.768-1.024 1.1264-1.536 0.9216-1.3312 1.8944-2.56 2.8672-3.7888l1.2288-1.536c2.7136-3.2256 5.4784-5.9904 8.1408-8.192 0.2048-0.1536 0.4096-0.3584 0.6144-0.512 1.1264-0.9216 2.2528-1.7408 3.328-2.4576 0.3584-0.2048 0.6656-0.4608 0.9728-0.6656 1.0752-0.7168 2.1504-1.28 3.1744-1.792a23.9872 23.9872 0 0 1 3.9424-1.536c0.1024-0.0512 0.2048-0.1024 0.3072-0.1024 0.8704-0.2048 1.5872-0.3072 2.2528-0.3072 0.768 0 1.4336 0.1024 1.9456 0.3584 2.2528 1.0752 4.7104 5.888 5.12 14.1824 0.5632 8.2944-1.1264 18.0736-4.608 27.9552z m14.4384 373.504l-2.3552 2.3552c4.096-29.184 6.5024-57.6512 8.2432-83.456 0.1536-2.6112 0.3584-5.1712 0.512-7.68 0.1024-1.3312 0.1536-2.6112 0.256-3.9424 0.5632-8.8064 1.024-17.152 1.4336-24.9344 0.1536-2.4064 0.256-4.8128 0.4096-7.1168 0.4096-7.1168 0.768-13.7728 1.1776-19.8656 0.7168-10.496 1.5872-21.6576 2.4576-33.3312 1.3312-17.4592 2.7648-36.1984 3.9424-55.6544 0.1024-1.4336 0.1536-2.8672 0.256-4.352 0.3072-5.5296 0.6144-11.0592 0.8704-16.64 1.6896-37.0688 1.9968-75.7248-1.5872-111.9744 4.0448-12.544 5.9392-25.088 5.376-36.4032-0.8704-17.2032-7.5264-30.72-18.432-37.9904 19.3024-26.7776 40.7552-49.0496 61.9008-63.6928 29.6448-20.5312 71.168 15.8208 98.4064 53.9648a283.136 283.136 0 0 1 10.3936 45.1072c29.6448 200.192-117.76 349.44-173.2608 405.6064z" fill="#333B44" p-id="1407"></path></svg>